<?xml version="1.0" standalone="no"?>
<!DOCTYPE svg PUBLIC "-//W3C//DTD SVG 20010904//EN"
 "http://www.w3.org/TR/2001/REC-SVG-20010904/DTD/svg10.dtd">
<svg version="1.0" xmlns="http://www.w3.org/2000/svg"
 width="1440.000000pt" height="900.000000pt" viewBox="0 0 1440.000000 900.000000"
 preserveAspectRatio="xMidYMid meet">

<g transform="translate(0.000000,900.000000) scale(0.100000,-0.100000)"
fill="#000000" stroke="none">
<path d="M7510 8910 c-96 -51 -210 -91 -385 -136 -93 -24 -171 -42 -172 -40
-2 2 60 29 137 61 78 31 139 59 138 61 -8 7 -164 -39 -274 -82 -125 -48 -194
-82 -194 -96 0 -4 -4 -8 -9 -8 -16 0 -242 -82 -238 -86 2 -3 62 14 133 36 155
49 446 131 451 127 10 -11 -579 -223 -1129 -407 -136 -45 -246 -86 -243 -89 6
-11 -242 -67 -425 -97 -91 -14 -217 -36 -280 -50 -197 -41 -306 -53 -590 -64
-267 -10 -281 -10 -480 15 -367 45 -736 114 -1075 200 -49 12 -92 21 -94 19
-6 -6 257 -84 399 -118 80 -19 206 -46 280 -60 181 -34 180 -34 138 -35 -66
-2 -411 29 -498 45 -118 21 -490 117 -580 150 -41 14 -115 47 -164 71 -100 50
-263 123 -274 123 -4 -1 7 -12 23 -27 l30 -26 -47 27 c-26 14 -53 26 -61 26
-26 0 -26 -26 -1 -56 29 -35 30 -44 5 -44 -10 0 -26 11 -35 25 -9 14 -23 25
-31 25 -8 0 -15 5 -15 12 0 6 -2 9 -5 6 -3 -3 8 -48 25 -100 16 -52 30 -104
30 -115 0 -11 18 -76 39 -144 156 -491 172 -580 172 -973 1 -333 -18 -557 -81
-968 -20 -135 -254 -864 -297 -928 -17 -25 -57 -88 -89 -140 -86 -141 -239
-369 -341 -508 -49 -68 -98 -138 -108 -155 -17 -30 -14 -29 30 13 l48 45 -50
-75 c-28 -41 -58 -90 -68 -109 -17 -33 -16 -35 5 -75 13 -23 29 -48 36 -57 8
-8 14 -23 14 -32 0 -9 4 -17 10 -17 5 0 60 -75 122 -166 62 -92 123 -181 135
-198 50 -69 221 -481 321 -771 39 -110 85 -238 105 -285 22 -55 41 -125 52
-199 12 -75 21 -108 26 -95 6 17 8 17 18 -8 6 -16 15 -28 19 -28 11 0 25 -322
26 -585 0 -197 0 -198 -60 -430 -4 -15 -1 -14 10 5 l15 25 7 -44 c6 -40 8 -42
16 -21 5 13 20 80 34 149 22 105 26 150 25 271 -2 145 -17 394 -27 438 -2 13
-1 21 4 18 10 -6 14 -30 42 -256 11 -85 20 -195 20 -245 0 -93 -21 -248 -38
-281 -5 -10 -15 -35 -21 -55 -29 -94 -8 -110 152 -121 67 -4 147 -14 177 -22
30 -9 42 -13 25 -11 -16 2 -93 7 -170 9 -141 5 -142 1 -5 -24 30 -5 75 -16
100 -25 l45 -15 -50 6 c-27 3 -48 4 -45 1 3 -3 73 -22 155 -42 83 -20 166 -44
185 -54 19 -10 53 -22 75 -25 173 -30 251 -59 510 -187 143 -71 333 -167 423
-214 153 -80 202 -99 187 -75 -4 7 3 9 22 5 26 -6 25 -3 -22 42 -27 26 -49 52
-47 56 4 13 -146 105 -268 164 -63 31 -129 66 -146 79 -17 13 -34 21 -38 16
-4 -4 -6 -1 -4 7 2 8 -20 28 -52 47 -30 19 -50 34 -44 34 30 0 264 -131 479
-268 249 -159 335 -228 335 -270 0 -30 51 -174 85 -242 35 -69 89 -126 132
-141 47 -15 190 -6 230 14 41 22 88 77 104 124 9 25 14 83 13 171 0 72 1 132
3 132 1 0 62 -27 134 -61 238 -110 356 -105 472 20 26 28 51 51 56 51 4 0 20
-14 37 -31 44 -47 95 -69 158 -69 92 0 143 30 177 105 23 49 24 143 4 235 -7
36 -11 68 -7 72 4 3 23 9 43 13 l35 6 33 -86 c57 -151 150 -237 268 -252 78
-9 153 38 186 117 l15 34 31 -64 c16 -36 40 -71 51 -78 34 -21 137 -16 245 12
55 15 172 42 260 62 171 39 273 74 300 104 16 18 18 18 58 -1 28 -12 65 -19
113 -19 86 0 156 31 193 85 27 40 51 129 51 193 0 37 3 42 24 42 21 0 24 -6
29 -57 21 -192 85 -278 216 -290 33 -3 73 0 93 6 32 11 40 9 84 -18 70 -44
177 -59 247 -36 29 9 67 28 86 42 35 27 70 92 71 131 0 38 18 25 56 -44 44
-79 135 -192 175 -218 68 -43 146 -39 221 10 21 13 40 24 43 24 2 0 13 -17 24
-38 40 -77 89 -104 196 -104 82 0 110 9 159 53 50 43 66 79 115 249 71 248 85
291 91 295 11 7 326 -46 395 -66 39 -11 124 -43 190 -71 65 -28 132 -54 147
-59 50 -14 20 10 -70 57 -82 42 -85 45 -46 41 22 -3 78 -21 124 -41 102 -44
117 -42 20 4 -39 17 -69 35 -65 38 3 3 61 -22 128 -55 67 -34 226 -110 352
-168 202 -93 391 -193 382 -202 -2 -1 -43 13 -91 33 -49 19 -90 33 -92 31 -8
-7 184 -106 429 -222 137 -64 251 -115 253 -112 9 8 -64 59 -149 104 -45 23
-80 42 -77 43 13 0 101 -31 154 -54 32 -14 62 -23 67 -21 4 3 34 -5 66 -19 62
-26 74 -26 52 0 -12 15 -10 15 25 0 33 -14 37 -14 26 -1 -10 12 -9 15 7 15 10
0 27 6 37 13 15 11 16 19 8 51 -9 31 -8 43 9 69 l19 32 0 -62 c0 -34 5 -65 10
-68 13 -8 19 9 29 71 l7 49 7 -74 c3 -41 11 -79 17 -85 6 -6 10 -6 10 0 0 5 9
106 20 224 45 507 81 667 236 1040 100 242 336 700 361 700 2 0 -20 -44 -48
-98 -29 -53 -50 -95 -47 -92 4 3 49 76 102 163 52 87 117 188 143 225 56 79
271 296 468 472 76 69 157 142 180 164 l40 38 -35 -23 c-49 -31 -187 -147
-298 -247 -50 -46 -115 -105 -144 -130 l-52 -47 34 49 c81 114 185 201 505
427 157 110 166 116 260 166 44 23 72 43 62 43 -10 0 -36 19 -58 42 -45 49
-49 57 -14 34 57 -37 86 -2 33 41 -18 15 -69 62 -113 103 -44 42 -107 96 -140
120 -70 51 -125 100 -125 112 0 4 -49 73 -109 152 -60 79 -119 164 -131 188
-27 53 -17 43 45 -47 81 -116 163 -213 310 -363 130 -134 175 -174 175 -155 0
4 -70 85 -156 178 -86 94 -185 206 -220 250 -90 111 -282 402 -348 526 -63
118 -127 279 -124 312 1 12 -10 58 -25 102 -78 238 -125 472 -187 930 -8 65
-9 63 -4 -35 6 -135 36 -343 80 -545 47 -222 47 -220 14 -120 -60 179 -99 420
-121 745 -13 199 -8 301 25 515 l24 150 -2 -330 c-1 -339 7 -462 44 -700 11
-66 26 -138 34 -160 19 -52 19 -37 2 83 -14 91 -27 218 -42 410 -4 57 -3 82 5
82 6 0 11 -17 11 -38 0 -186 76 -731 125 -895 16 -51 52 -125 41 -82 -68 264
-107 514 -142 910 -14 159 -15 210 -5 314 23 241 127 845 186 1079 28 111 50
167 140 355 130 269 135 285 51 137 -106 -186 -109 -183 -18 15 30 66 70 137
88 157 18 20 36 52 39 71 6 33 11 36 68 52 80 23 59 31 -28 10 -81 -19 -86
-19 -79 -1 4 11 -5 17 -31 22 -65 12 -166 -4 -295 -46 -93 -30 -138 -40 -175
-38 l-50 3 75 19 c120 31 65 30 -102 -2 -91 -18 -200 -32 -271 -35 -65 -2
-116 -3 -114 -1 1 2 140 30 307 63 400 79 631 131 574 131 -18 0 -282 -40
-424 -65 -80 -13 -172 -27 -205 -29 -33 -3 -116 -17 -185 -31 -188 -39 -407
-75 -448 -75 l-37 0 70 40 c89 51 77 51 -23 1 l-77 -38 -425 -6 c-351 -4 -411
-3 -345 7 l80 12 -124 7 c-68 4 -273 7 -455 8 -209 0 -366 5 -426 13 -52 7
-86 15 -75 17 11 2 -88 32 -220 67 -597 155 -1112 349 -1617 610 -5 2 -8 -1
-8 -6 0 -26 441 -260 647 -343 99 -39 104 -50 7 -14 -146 54 -408 181 -629
307 -116 65 -162 98 -260 188 -66 61 -124 110 -128 110 -21 0 128 -162 238
-259 70 -61 48 -54 -46 16 -36 26 -103 91 -148 144 -45 54 -88 100 -97 103
-31 12 -70 4 -124 -24z m725 -418 c144 -82 468 -237 650 -311 69 -28 43 -26
-42 3 -173 59 -581 257 -680 330 -67 49 -84 70 -30 38 17 -11 64 -37 102 -60z
m-145 -10 c106 -71 113 -76 85 -66 -48 18 -186 106 -196 125 -13 25 -19 29
111 -59z m-1510 23 c-28 -16 -416 -145 -434 -144 -12 0 433 158 449 158 6 0
-1 -6 -15 -14z m-51 -59 c-10 -11 -238 -106 -253 -106 -9 0 -16 -4 -16 -9 0
-5 -10 -7 -22 -4 -17 3 -19 2 -10 -5 11 -7 7 -11 -13 -16 -15 -4 -30 -5 -33
-1 -3 3 3 5 13 5 10 0 16 3 13 6 -4 3 -59 -6 -123 -21 -65 -14 -119 -25 -121
-23 -2 2 72 26 164 53 92 27 217 65 277 86 107 36 133 44 124 35z m2291 -156
c8 -5 11 -10 5 -10 -5 0 -17 5 -25 10 -8 5 -10 10 -5 10 6 0 17 -5 25 -10z
m-2694 -32 c-10 -6 -138 -41 -285 -78 -146 -38 -337 -89 -424 -114 -87 -25
-190 -50 -230 -55 -40 -5 -134 -21 -210 -35 -142 -27 -458 -47 -687 -45 l-105
2 90 8 c193 18 438 52 610 84 301 57 368 67 405 61 21 -3 28 -3 16 2 -12 5 4
9 45 9 37 1 146 20 261 47 108 25 205 46 215 46 14 0 15 2 4 9 -9 6 16 16 80
30 121 28 178 39 209 40 23 0 23 -1 6 -11z m-491 -79 c-74 -23 -611 -106 -621
-96 -3 3 35 10 83 17 48 6 187 29 308 49 225 39 284 47 230 30z m3590 -74 c64
-20 114 -39 112 -42 -8 -7 -156 37 -212 63 -57 28 -56 28 100 -21z m-6162 -72
c-7 -2 -21 -2 -30 0 -10 3 -4 5 12 5 17 0 24 -2 18 -5z m622 -8 c133 1 203 -2
165 -6 -93 -10 -388 -10 -586 -1 -138 6 -157 8 -104 13 36 3 117 3 180 0 63
-3 219 -6 345 -6z m585 -35 c-25 -5 -138 -14 -252 -21 -115 -7 -208 -15 -208
-19 0 -4 -65 -10 -144 -14 -138 -7 -253 3 -359 32 -15 4 134 8 331 9 196 1
411 6 477 11 66 5 138 9 160 9 l40 0 -45 -7z m5637 -36 c-3 -3 -12 -4 -19 -1
-8 3 -5 6 6 6 11 1 17 -2 13 -5z m206 -34 c40 -10 63 -18 52 -19 -25 -1 -238
39 -245 46 -9 9 119 -9 193 -27z m2396 16 c-3 -3 -69 -17 -149 -31 -79 -14
-149 -30 -155 -34 -18 -15 -438 -81 -505 -80 -19 0 12 9 70 20 58 10 201 39
317 64 198 42 310 61 392 64 19 0 32 -1 30 -3z m-1574 -33 c358 -4 482 -9 460
-17 -74 -25 -887 -6 -1030 25 -34 7 -31 8 20 4 33 -3 281 -8 550 -12z m1194
12 c-3 -2 -113 -27 -244 -54 -132 -28 -283 -59 -335 -70 -104 -23 -246 -29
-200 -9 14 6 50 22 80 35 47 21 352 80 500 96 53 6 204 8 199 2z m-8029 -14
l85 -7 -97 -8 c-88 -8 -385 7 -397 20 -7 6 314 3 409 -5z m6350 -16 c74 -8
218 -18 320 -21 102 -4 196 -11 210 -15 37 -11 -193 -10 -355 1 -129 9 -314
35 -324 46 -6 6 -3 5 149 -11z m1855 -25 c-11 -5 -29 -8 -40 -8 -16 0 -15 2 5
8 34 11 60 11 35 0z m-1943 -25 c89 -9 228 -22 308 -31 158 -16 424 -27 350
-15 -25 4 -38 10 -30 13 19 8 400 32 406 26 7 -8 -149 -57 -203 -64 -29 -4
-53 -10 -53 -15 0 -12 -70 -11 -145 1 -33 5 -152 14 -265 20 -323 16 -518 45
-555 83 -7 7 -5 8 7 4 9 -3 90 -13 180 -22z m1515 -61 c-3 -3 -12 -4 -19 -1
-8 3 -5 6 6 6 11 1 17 -2 13 -5z m936 -311 c-59 -127 -113 -304 -67 -220 8 15
17 27 19 27 5 0 2 -6 -34 -99 -12 -29 -19 -61 -17 -70 3 -9 -12 -83 -33 -166
-22 -82 -40 -141 -40 -131 -1 30 48 344 64 406 30 115 73 230 104 279 18 28
35 51 36 51 2 0 -12 -35 -32 -77z m-10502 -133 c5 -37 6 -82 2 -105 -8 -35
-11 -23 -31 110 -12 83 -22 155 -21 160 2 23 40 -105 50 -165z m10326 -362
c-3 -8 -6 -5 -6 6 -1 11 2 17 5 13 3 -3 4 -12 1 -19z m-10350 -10 c-3 -8 -6
-5 -6 6 -1 11 2 17 5 13 3 -3 4 -12 1 -19z m10338 -73 c-4 -31 -10 -54 -12
-51 -3 3 -2 30 2 61 3 31 9 54 12 52 2 -3 1 -31 -2 -62z m-10274 -298 c-12
-154 -52 -369 -94 -512 -60 -206 -39 -64 47 315 15 67 45 301 48 380 2 45 2
45 5 -8 2 -29 0 -108 -6 -175z m-34 136 c-2 -16 -4 -5 -4 22 0 28 2 40 4 28 2
-13 2 -35 0 -50z m10350 -65 c-3 -8 -6 -5 -6 6 -1 11 2 17 5 13 3 -3 4 -12 1
-19z m-10356 -40 c-3 -62 -11 -60 -11 2 0 29 3 50 7 46 4 -3 6 -25 4 -48z
m7049 17 c8 -7 42 -26 75 -43 34 -17 84 -51 113 -77 53 -48 73 -54 52 -16 -14
28 4 28 23 0 11 -15 13 -29 6 -51 -4 -17 -6 -35 -3 -40 10 -15 -6 -47 -22 -41
-7 3 -14 0 -14 -6 0 -6 -28 10 -62 35 -102 75 -228 133 -228 105 0 -5 -8 -7
-19 -4 -14 3 -20 -2 -25 -22 -4 -15 -6 -28 -4 -29 2 0 17 -11 35 -24 18 -12
36 -22 40 -22 12 0 78 -71 78 -83 0 -6 27 -30 60 -52 35 -24 73 -60 90 -87 33
-51 34 -52 54 -39 12 8 10 20 -13 73 -43 97 -42 92 -14 74 13 -9 28 -13 33 -9
4 5 5 3 1 -4 -3 -6 -2 -14 4 -18 5 -3 10 -25 11 -48 0 -38 1 -40 10 -17 7 17
7 43 -1 82 -9 50 -9 61 7 85 20 30 22 43 25 150 1 68 2 71 16 51 13 -17 14
-30 5 -72 -6 -28 -15 -60 -19 -70 -4 -12 -4 -17 2 -13 6 3 15 -2 21 -12 10
-17 6 -38 -22 -105 -6 -14 -5 -18 6 -14 8 2 24 29 37 59 22 53 22 53 16 14 -4
-30 -3 -36 5 -25 6 8 11 24 11 35 1 35 20 -6 21 -45 l1 -35 8 38 c8 43 20 60
20 29 0 -24 15 -30 23 -9 5 14 71 37 103 37 13 -1 9 -5 -12 -14 -18 -8 -34
-18 -37 -23 -7 -11 14 -28 36 -29 58 -3 67 -5 67 -19 0 -12 8 -14 40 -9 46 7
53 -6 15 -26 -38 -20 -25 -33 31 -34 42 -1 64 -9 125 -46 41 -25 78 -55 84
-68 5 -12 13 -22 18 -22 4 0 5 -6 1 -12 -4 -7 -4 -10 1 -6 12 11 35 -11 28
-28 -3 -9 11 -31 36 -56 22 -23 53 -60 68 -81 25 -36 26 -40 10 -49 -16 -8
-14 -13 18 -46 41 -42 44 -52 13 -44 l-22 5 22 -31 c12 -17 26 -51 31 -76 5
-25 14 -52 21 -60 7 -9 8 -21 3 -28 -4 -7 -9 -22 -9 -33 -1 -11 -8 -46 -15
-77 -10 -44 -10 -61 -2 -69 9 -9 15 -3 27 22 14 33 14 31 15 -68 1 -56 5 -105
11 -108 6 -4 10 13 11 42 2 47 2 46 10 -17 5 -43 5 -66 -2 -71 -7 -4 -9 -30
-5 -70 3 -35 2 -80 -2 -99 l-8 -35 -8 38 c-4 20 -12 37 -18 37 -10 0 -6 -43 8
-88 4 -13 2 -13 -11 3 -13 17 -15 43 -12 170 2 100 1 140 -5 120 -18 -59 -21
-61 -29 -30 -5 18 -7 -24 -5 -100 2 -89 8 -144 19 -173 15 -39 15 -45 2 -59
-13 -13 -15 -11 -15 16 0 17 -5 31 -11 31 -10 0 -9 -57 5 -180 15 -128 16
-161 6 -155 -17 10 -108 205 -121 258 -6 26 -16 47 -22 47 -14 0 -2 -103 18
-160 10 -27 11 -40 4 -33 -6 6 -22 47 -35 90 -17 60 -23 70 -23 45 -1 -41 18
-122 33 -141 6 -8 -15 1 -47 19 -54 30 -63 32 -117 26 -50 -6 -60 -5 -60 9 0
19 -4 19 -40 0 l-30 -16 -1 33 c-2 32 -2 32 -10 -7 -6 -35 -7 -33 -7 25 1 92
-1 112 -11 106 -4 -3 -12 -42 -15 -86 -4 -45 -14 -96 -22 -113 l-15 -32 7 35
c3 19 8 73 10 120 5 126 16 199 25 175 5 -14 8 -6 8 26 1 26 4 62 7 80 4 24 3
30 -4 20 -11 -16 -19 22 -32 157 -5 54 -8 65 -10 37 l-2 -40 -9 40 c-4 22 -10
90 -13 150 -5 100 -36 247 -71 329 -8 19 -6 18 23 -2 17 -13 41 -36 53 -53 27
-38 35 -32 16 12 -16 39 -189 207 -195 190 -2 -6 -9 -8 -15 -4 -5 3 10 -32 34
-78 65 -122 66 -130 12 -76 -54 52 -75 61 -45 20 11 -16 23 -39 27 -53 l8 -24
-37 28 c-21 15 -44 25 -52 22 -9 -3 -25 -1 -36 5 -40 21 -26 1 61 -91 54 -57
91 -89 95 -82 4 7 1 22 -6 34 -7 13 -13 33 -15 46 -3 37 19 12 55 -60 50 -101
64 -194 62 -418 -1 -131 3 -211 11 -243 10 -38 10 -53 1 -68 -9 -14 -9 -43 -2
-111 5 -51 9 -122 8 -158 -1 -54 -2 -47 -9 40 -4 58 -15 138 -23 178 -9 40
-16 97 -17 125 0 46 -1 49 -11 27 -10 -23 -11 -23 -15 -5 -3 11 -9 24 -14 30
-5 5 -9 17 -9 26 0 10 -5 30 -11 46 -14 38 -30 11 -18 -31 14 -48 10 -185 -6
-246 -17 -65 -18 -70 -6 -70 5 0 16 19 24 43 12 33 16 37 16 17 l1 -25 19 24
c10 13 21 19 24 14 11 -18 27 -184 27 -280 0 -51 4 -93 9 -93 12 0 23 62 16
86 -4 12 -1 10 8 -5 11 -18 16 -21 21 -10 3 8 4 2 1 -13 -10 -51 12 -29 39 40
45 115 136 184 222 168 52 -10 120 -78 129 -129 13 -66 -16 -118 -126 -228
-101 -101 -145 -166 -134 -198 6 -20 -38 -81 -58 -81 -7 0 -33 -24 -59 -53
-60 -70 -203 -176 -303 -228 -53 -27 -82 -48 -87 -62 -9 -34 -7 -125 6 -197 9
-54 14 -65 31 -66 43 -3 103 -25 109 -40 13 -34 5 -88 -21 -132 -58 -102 -137
-213 -182 -255 -75 -70 -123 -90 -211 -91 -67 -1 -84 3 -145 34 -46 23 -96 60
-147 110 -86 83 -93 104 -63 177 8 19 15 54 15 77 0 23 7 52 16 64 15 22 17
22 30 5 13 -17 13 -17 14 5 0 29 -26 151 -47 215 -10 32 -20 47 -28 43 -7 -2
-16 1 -18 8 -3 8 -42 17 -99 24 -194 24 -410 85 -508 145 -46 28 -177 141
-216 186 -53 62 -90 124 -119 196 -25 63 -29 86 -35 245 -4 96 -4 182 0 190 5
8 11 36 15 63 4 26 11 47 17 47 5 0 21 -11 35 -25 15 -13 28 -23 30 -21 2 2
-3 18 -11 37 -17 44 -28 99 -18 99 4 0 15 -15 25 -32 29 -53 54 -79 82 -84
l26 -4 -31 59 c-25 50 -30 72 -29 123 1 47 3 55 8 33 4 -16 15 -47 24 -67 9
-21 17 -44 17 -52 0 -8 3 -16 8 -18 4 -1 15 -19 25 -38 24 -46 46 -75 52 -68
3 3 -6 25 -20 49 -33 59 -31 66 8 30 40 -38 55 -40 29 -3 -63 89 -102 223 -71
243 28 18 39 10 39 -31 0 -54 13 -50 31 8 11 35 20 48 37 50 19 3 22 -1 22
-36 0 -58 14 -61 26 -5 8 38 14 48 31 49 19 1 20 -3 16 -57 -3 -33 -3 -59 0
-59 14 0 36 58 31 81 -5 20 -4 21 6 9 10 -12 11 -11 7 8 -3 12 -2 20 2 18 15
-9 43 23 37 42 -10 30 40 145 83 191 21 22 46 57 57 76 18 34 34 46 34 25 0
-25 -54 -118 -66 -113 -8 3 -15 -6 -19 -24 -3 -15 -10 -44 -15 -63 -4 -19 -18
-82 -30 -139 -12 -57 -24 -110 -27 -117 -12 -31 15 -11 31 23 15 32 19 35 27
20 7 -12 4 -28 -11 -57 -11 -22 -16 -40 -11 -40 12 0 152 276 162 320 39 175
50 235 54 295 7 90 2 77 -25 -70 -20 -111 -25 -122 -50 -137 l-27 -16 9 37 c6
20 10 49 9 65 0 16 10 47 23 70 33 57 54 122 72 229 9 51 21 98 27 106 15 18
202 108 242 116 l30 6 -30 -17 c-108 -59 -185 -107 -181 -112 3 -2 47 20 98
50 128 76 166 94 216 103 66 11 39 27 -37 21 -84 -6 -158 -26 -243 -65 -38
-16 -68 -27 -68 -24 0 4 -13 -6 -30 -22 -16 -16 -30 -26 -30 -22 0 4 14 34 30
67 17 33 30 66 30 73 0 14 96 81 210 147 30 17 44 28 30 24 -31 -8 -151 -68
-202 -100 -21 -13 -38 -22 -38 -20 0 3 -12 -6 -26 -19 -14 -13 -29 -24 -33
-23 -19 2 -31 -3 -28 -13 1 -6 -8 -13 -20 -15 -13 -2 -23 -2 -23 1 0 16 158
126 228 158 45 22 82 43 82 49 0 13 -41 3 -109 -28 -29 -13 -61 -24 -70 -24
-22 0 -186 -96 -184 -107 1 -5 -8 -15 -20 -23 -21 -12 -21 -12 -7 5 14 17 14
17 -7 7 -12 -7 -25 -17 -29 -24 -4 -7 -3 -8 4 -4 18 11 14 0 -5 -15 -14 -12
-16 -12 -9 0 6 9 5 12 -5 9 -8 -3 -13 -10 -12 -16 2 -6 -10 -21 -25 -32 -15
-12 -27 -25 -27 -30 0 -17 -66 -70 -86 -70 -12 0 -45 -16 -73 -36 -28 -21 -43
-27 -32 -15 11 11 14 21 9 21 -14 0 -162 -158 -176 -187 -24 -53 16 -36 97 41
55 53 177 143 214 157 12 5 22 13 22 18 0 11 141 130 185 156 29 17 29 16 -5
-16 -19 -18 -34 -36 -33 -40 1 -3 -11 -19 -27 -34 -17 -16 -30 -33 -30 -39 0
-5 -26 -37 -57 -71 -160 -169 -217 -246 -151 -203 39 26 181 169 174 175 -3 3
-14 -1 -23 -9 -51 -44 -39 -22 31 55 43 48 82 85 86 82 9 -6 94 42 146 82 23
17 34 21 34 12 0 -24 -68 -128 -105 -161 -21 -18 -34 -37 -31 -45 3 -8 2 -12
-3 -8 -5 3 -25 -14 -45 -37 -40 -47 -49 -73 -13 -40 13 12 26 19 30 16 3 -4
21 6 39 21 18 15 34 22 36 17 6 -19 -50 -202 -60 -196 -12 7 -38 -27 -31 -41
2 -5 -2 -2 -10 8 -13 15 -16 15 -27 3 -6 -9 -9 -20 -6 -25 8 -12 -74 -121 -91
-121 -6 0 -24 -15 -39 -32 l-27 -33 18 30 c10 17 27 41 39 55 51 58 45 61 -10
4 -60 -61 -86 -110 -114 -221 -8 -33 -16 -43 -31 -43 -16 0 -19 5 -14 23 15
56 99 208 145 265 29 35 49 66 46 69 -12 12 -37 -9 -101 -84 -71 -83 -138
-194 -155 -255 -6 -20 -15 -40 -21 -44 -22 -13 -21 8 1 56 13 27 20 53 17 57
-4 3 -3 11 2 17 5 6 12 27 15 46 l7 35 -61 -65 c-33 -36 -66 -65 -73 -65 -6 0
-11 -8 -9 -18 2 -10 -3 -17 -13 -17 -22 0 -19 22 17 97 22 48 55 92 111 151
44 45 74 82 66 82 -8 0 -20 -5 -27 -12 -7 -7 -12 -8 -12 -4 0 5 -16 -4 -35
-18 -40 -31 -43 -27 -14 20 11 19 18 34 16 34 -3 0 -21 -26 -41 -57 -19 -32
-47 -71 -61 -88 l-26 -30 17 35 c39 81 93 150 196 254 129 130 186 204 77 100
-41 -39 -89 -79 -108 -90 -66 -38 -219 -277 -237 -371 -8 -40 8 -43 23 -5 10
25 11 26 12 4 1 -27 -24 -79 -49 -101 -10 -9 -28 -44 -41 -79 -12 -34 -24 -61
-26 -58 -2 2 3 34 12 70 8 37 15 77 15 89 0 12 14 51 30 86 31 64 35 98 6 44
-14 -26 -15 -27 -16 -5 0 12 9 48 21 80 30 83 32 92 22 92 -5 0 -26 -35 -46
-77 -46 -98 -47 -82 -3 42 21 57 51 118 74 148 48 64 56 77 45 77 -11 0 -105
-114 -153 -184 -27 -40 -31 -52 -22 -67 12 -19 6 -52 -8 -44 -5 3 -14 -12 -21
-32 -13 -39 -16 -63 -19 -193 -2 -41 -7 -84 -13 -95 -24 -47 -27 -56 -27 -74
0 -49 -70 -221 -91 -221 -5 0 0 13 13 30 17 23 23 50 29 122 4 51 14 120 23
153 18 69 20 125 6 125 -10 0 -14 -12 -30 -104 -13 -76 -20 -83 -20 -20 0 60
-13 85 -28 58 -6 -10 -13 -16 -17 -13 -3 4 14 27 39 51 50 50 86 111 86 146 0
32 -14 21 -49 -41 -16 -28 -49 -73 -73 -98 -24 -25 -33 -34 -21 -20 12 14 31
48 42 74 11 26 33 63 47 82 25 34 20 51 -6 20 -13 -16 -30 -20 -30 -7 0 4 15
16 34 26 19 10 37 25 40 32 6 16 -10 19 -19 4 -6 -10 -85 -54 -85 -47 0 1 29
25 65 52 39 29 65 56 65 67 0 17 -2 18 -27 3 -16 -9 -53 -34 -83 -55 -30 -21
-59 -36 -64 -33 -11 7 22 33 42 33 24 0 97 67 122 112 17 31 19 39 7 29 -24
-19 -22 3 3 39 31 43 89 171 96 210 4 26 3 31 -5 20 -9 -13 -11 -13 -11 3 0
27 -19 20 -26 -10 -4 -16 -16 -40 -27 -55 -20 -28 -137 -123 -137 -112 0 16
64 93 73 87 6 -4 7 -1 3 6 -5 8 15 35 53 73 34 34 61 63 61 65 0 3 -10 1 -21
-2 -13 -5 -19 -3 -15 3 3 5 29 16 58 22 50 12 161 79 185 111 7 9 44 35 83 59
38 23 67 46 65 51 -7 11 53 42 65 34 6 -3 10 -2 10 4 0 5 18 12 40 16 43 7 49
15 26 34 -37 31 -274 -36 -260 -73 3 -7 -1 -16 -9 -19 -11 -4 -13 0 -9 15 4
19 1 19 -54 14 -32 -3 -48 -2 -34 2 14 4 58 24 98 45 131 68 203 119 187 134
-4 5 -10 2 -12 -4 -3 -7 -9 -13 -15 -13 -5 0 -29 -14 -54 -31 -55 -38 -123
-69 -149 -68 -12 0 -5 6 18 14 56 21 198 109 231 144 17 17 38 31 48 31 19 0
111 41 116 52 2 4 11 4 20 1 10 -4 13 -2 9 3 -5 5 7 14 25 20 18 6 32 16 31
22 -3 14 96 51 156 59 61 8 88 22 42 23 -52 0 -147 -28 -223 -66 -77 -39 -90
-39 -23 1 67 39 172 76 238 83 32 4 57 11 56 16 -1 13 23 26 49 26 24 0 32
-35 10 -43 -29 -10 0 -15 37 -7 22 5 57 10 78 10 20 0 37 5 37 10 0 6 34 10
81 10 57 0 78 3 73 11 -5 9 3 10 30 5 39 -8 46 -1 19 21 -16 12 -14 13 17 7
19 -3 42 -12 50 -19z m-240 -11 c-116 -16 -126 -16 -75 1 22 8 69 13 105 13
l65 0 -95 -14z m3514 -155 c-15 -85 -30 -181 -34 -214 -7 -57 -8 -56 -5 20 3
75 53 361 61 352 3 -2 -8 -73 -22 -158z m-4079 43 c-16 -11 -36 -27 -44 -36
-16 -19 -117 -73 -107 -57 10 15 156 111 169 111 7 0 -1 -8 -18 -18z m1230
-12 c17 -33 18 -40 7 -40 -4 0 -12 16 -18 35 -13 43 -10 45 11 5z m-7498 -52
c-2 -13 -4 -5 -4 17 -1 22 1 32 4 23 2 -10 2 -28 0 -40z m7088 12 c3 -5 2 -10
-4 -10 -5 0 -13 5 -16 10 -3 6 -2 10 4 10 5 0 13 -4 16 -10z m30 -56 c54 -34
116 -97 135 -136 6 -12 -11 1 -38 31 -27 30 -54 51 -60 47 -10 -6 -112 81
-112 96 0 10 1 9 75 -38z m392 -11 c-3 -10 -5 -4 -5 12 0 17 2 24 5 18 2 -7 2
-21 0 -30z m-287 -18 c13 -14 21 -25 18 -25 -2 0 -15 11 -28 25 -13 14 -21 25
-18 25 2 0 15 -11 28 -25z m-1164 -20 c-11 -8 -25 -15 -30 -15 -6 1 0 7 14 15
32 19 40 18 16 0z m1729 5 c-3 -5 -17 -10 -31 -10 -13 0 -24 5 -24 10 0 6 14
10 31 10 17 0 28 -4 24 -10z m-7738 -52 c-3 -8 -6 -5 -6 6 -1 11 2 17 5 13 3
-3 4 -12 1 -19z m-32 -190 c-61 -333 -112 -498 -225 -728 -50 -102 -88 -176
-84 -165 4 11 20 56 36 100 16 44 40 133 53 198 13 65 28 124 33 130 5 7 17
36 27 65 26 81 26 58 -1 -48 -26 -107 -28 -118 -15 -104 26 27 148 466 183
659 7 39 14 62 16 53 2 -9 -9 -81 -23 -160z m7922 90 c34 -27 72 -63 84 -79
11 -16 25 -27 30 -23 10 6 25 -23 16 -32 -7 -8 -87 46 -88 60 -1 6 -1 15 0 19
1 4 -42 28 -94 53 -96 46 -117 72 -47 59 21 -4 63 -28 99 -57z m-2317 -48 c0
-12 -27 -12 -55 0 -16 7 -13 9 18 9 20 1 37 -3 37 -9z m55 -40 c3 -5 2 -10 -4
-10 -5 0 -13 5 -16 10 -3 6 -2 10 4 10 5 0 13 -4 16 -10z m101 -26 c-3 -9 -6
-18 -6 -20 0 -7 -47 -5 -67 3 -14 6 -10 10 22 19 54 17 58 17 51 -2z m74 -4
c-8 -5 -22 -9 -30 -9 -10 0 -8 3 5 9 27 12 43 12 25 0z m20 -44 c0 -14 -71
-55 -105 -61 -30 -5 -36 -4 -25 4 8 6 23 11 33 11 10 0 35 11 55 25 38 26 42
28 42 21z m-6005 -123 c-8 -80 -32 -192 -44 -207 -5 -6 -29 -69 -54 -141 -52
-149 -54 -153 -154 -375 -91 -200 -145 -305 -179 -345 l-26 -30 28 50 c15 28
31 55 35 60 18 24 109 258 181 465 79 227 93 247 33 45 -19 -60 -32 -111 -31
-113 11 -10 141 368 161 467 19 94 46 191 52 191 3 0 2 -30 -2 -67z m2445
-102 c6 -85 14 -160 18 -167 4 -7 7 39 7 102 0 62 4 115 9 116 5 2 30 -53 55
-122 62 -167 90 -217 51 -91 -11 35 -19 66 -17 68 8 8 62 -73 83 -126 28 -69
91 -148 169 -213 120 -101 145 -91 40 15 -41 42 -75 84 -75 93 0 10 14 -1 34
-28 35 -45 86 -86 86 -69 0 5 -5 13 -11 16 -10 7 -109 137 -124 165 -4 8 6 -1
24 -20 20 -23 28 -28 24 -15 -5 14 8 7 42 -23 52 -46 102 -65 122 -48 9 8 1
21 -33 55 -25 24 -42 47 -37 52 5 5 45 -27 90 -71 76 -75 103 -93 103 -71 0 5
-20 37 -44 72 -24 35 -55 89 -71 119 l-27 55 48 -47 c26 -27 51 -48 56 -48 6
0 21 -9 35 -20 14 -11 30 -20 36 -20 6 0 -4 11 -23 25 -19 14 -30 25 -25 25 5
0 -4 13 -19 29 l-28 29 26 -2 c14 -2 35 -15 47 -30 36 -45 69 -56 175 -56 91
0 100 -2 125 -26 l26 -25 -5 28 c-4 26 -1 24 52 -28 60 -59 101 -87 113 -76 3
4 -3 17 -14 30 -30 33 -75 115 -71 128 2 6 34 -40 71 -102 75 -125 94 -152
118 -161 9 -3 25 -27 37 -51 22 -46 47 -74 36 -40 -5 18 16 -5 95 -106 42 -55
43 -55 39 -23 l-5 32 23 -21 c32 -30 38 -97 20 -205 -9 -50 -20 -157 -25 -240
-6 -82 -17 -171 -26 -199 -20 -64 -87 -177 -139 -233 -101 -110 -329 -242
-569 -331 -137 -51 -231 -64 -407 -59 -131 3 -173 -3 -115 -18 30 -7 33 -29 5
-44 -11 -6 -20 -16 -20 -23 0 -7 -6 -24 -14 -39 -30 -58 -50 -228 -26 -228 6
0 10 15 10 33 l1 32 19 -35 c38 -70 24 -115 -70 -230 -40 -48 -100 -145 -100
-160 0 -22 26 -8 48 25 12 19 27 35 32 35 14 0 12 -12 -6 -38 -9 -13 -14 -25
-12 -27 2 -2 15 14 28 36 14 21 30 37 37 35 6 -3 33 27 60 65 26 39 49 65 51
59 2 -6 -1 -16 -6 -23 -5 -7 -17 -29 -25 -49 -16 -37 -16 -37 6 -25 12 7 27
19 34 27 20 24 15 3 -13 -51 -14 -28 -24 -53 -21 -55 2 -2 12 14 23 36 10 22
24 39 29 39 29 -3 43 3 51 21 6 15 9 -2 9 -55 1 -56 5 -79 17 -91 15 -15 17
-13 23 32 11 87 21 96 30 27 4 -35 10 -63 15 -63 11 0 64 -238 55 -248 -6 -7
-343 173 -390 209 -33 25 -58 37 -69 33 -9 -3 -16 -9 -16 -13 0 -24 104 -141
145 -162 30 -15 67 -35 95 -50 8 -5 30 -15 47 -23 18 -8 49 -27 67 -41 19 -15
50 -28 68 -30 18 -1 41 -6 51 -10 10 -4 17 -3 17 4 0 7 -21 21 -46 32 -25 12
-43 23 -41 26 3 2 18 -2 34 -10 15 -8 43 -18 61 -22 29 -6 32 -4 32 17 0 13
-6 55 -14 93 -8 39 -17 115 -20 170 -2 55 -1 82 2 60 5 -26 12 -40 22 -40 21
0 24 68 6 190 -13 96 -14 139 -1 79 4 -16 10 -38 15 -49 8 -19 9 -19 9 3 1 27
17 29 31 2 6 -11 17 -20 24 -20 8 0 16 -7 20 -15 3 -8 11 -15 18 -15 7 0 -18
30 -55 68 -37 37 -67 71 -67 75 0 3 12 2 27 -4 39 -15 140 -112 184 -179 28
-41 46 -58 59 -57 26 2 25 7 -10 47 -55 65 -30 61 45 -7 41 -37 75 -71 75 -76
0 -4 17 -37 39 -72 21 -35 48 -97 60 -137 12 -40 31 -104 42 -143 12 -38 45
-115 74 -171 58 -108 79 -175 120 -384 15 -73 31 -145 36 -158 7 -18 6 -29 -6
-42 -8 -9 -15 -22 -15 -28 0 -7 -20 3 -45 22 -24 19 -61 40 -82 47 -40 13
-165 16 -201 4 -21 -6 -22 -3 -22 48 0 69 -27 164 -42 149 -8 -8 -8 -39 0
-109 l10 -98 -26 -20 c-30 -22 -69 -61 -120 -118 -26 -30 -40 -37 -70 -37 -20
-1 -111 -3 -202 -6 -91 -3 -211 -6 -267 -7 l-101 -2 -8 35 c-4 19 -8 134 -9
255 -2 121 -8 242 -14 268 -6 27 -12 138 -13 248 0 110 -5 202 -9 205 -5 3
-10 -3 -11 -13 0 -10 -4 2 -7 27 -9 64 -23 51 -26 -22 -1 -35 -5 -142 -10
-238 -5 -129 -3 -233 9 -395 18 -239 30 -317 52 -339 8 -8 14 -17 14 -21 0 -3
-102 -3 -227 1 -194 6 -233 10 -263 25 -57 31 -132 20 -180 -26 -26 -25 -29
-26 -146 -22 -65 3 -157 0 -204 -5 -119 -14 -406 -13 -457 1 -33 9 -44 18 -49
38 -17 66 21 471 56 593 12 45 6 -52 -15 -225 -15 -121 -20 -334 -9 -322 4 4
12 30 20 59 l12 53 1 -55 c1 -30 5 -62 10 -69 18 -28 23 33 12 128 -8 62 -8
118 -2 178 6 48 10 135 10 193 -1 121 20 199 92 341 22 45 38 83 35 86 -2 3
-10 -5 -16 -17 -6 -12 -13 -20 -16 -18 -7 8 70 185 94 216 13 17 46 49 73 72
l48 41 -48 -78 c-26 -43 -58 -97 -70 -120 -11 -23 -30 -51 -42 -62 -12 -11
-18 -24 -15 -29 3 -5 1 -24 -5 -41 -17 -47 -4 -48 22 -2 12 22 27 39 32 38 5
-1 35 43 66 98 79 141 114 186 190 246 36 29 105 91 153 137 47 46 91 81 97
78 5 -4 24 14 41 39 31 45 52 56 32 18 -5 -10 -8 -23 -5 -29 2 -6 -3 -35 -11
-65 -7 -30 -11 -58 -7 -64 7 -10 -8 -140 -15 -132 -2 2 -8 37 -13 78 l-8 74
-1 -105 c0 -58 2 -98 6 -90 3 8 12 -19 18 -60 14 -84 58 -217 80 -240 12 -12
14 -12 14 5 0 19 1 19 18 -2 12 -16 24 -21 39 -17 18 5 20 10 13 35 -5 18 -5
29 1 29 13 0 4 59 -15 104 -20 47 -30 116 -18 116 6 0 13 8 15 18 4 14 6 14
12 -5 9 -29 19 -29 33 1 8 18 7 46 -3 108 -7 45 -11 85 -9 87 10 10 25 -61 28
-129 3 -72 16 -122 33 -133 4 -3 7 31 6 74 -1 44 2 77 7 74 4 -3 15 2 24 10
14 14 19 10 52 -40 20 -30 41 -55 47 -55 5 0 -2 15 -15 33 -58 76 -69 94 -77
125 -11 36 -2 42 17 12 7 -11 17 -20 23 -20 5 0 7 5 4 10 -19 31 84 -30 124
-73 13 -15 27 -24 32 -22 12 8 49 -45 49 -69 0 -16 -10 -26 -37 -35 -64 -23
-143 -80 -225 -160 -51 -50 -78 -84 -78 -99 0 -28 23 -29 59 -3 15 11 39 23
54 26 15 4 32 16 38 26 5 11 17 19 25 19 9 0 39 20 66 45 28 25 55 45 61 45 5
0 25 11 43 25 18 14 37 25 41 25 5 0 22 13 37 29 21 22 27 36 23 53 -17 68
-237 274 -362 341 l-60 32 1 58 c1 32 -3 57 -9 57 -5 0 -4 7 3 15 7 8 18 15
26 15 14 0 34 57 55 163 10 55 11 82 1 140 -7 39 -20 82 -28 95 -17 26 -23 26
71 6 11 -2 2 5 -20 16 -22 11 -46 20 -53 20 -22 0 -163 79 -217 121 -71 54
-184 173 -232 245 -48 70 -81 98 -181 148 -132 66 -193 146 -213 277 -14 97
-3 147 40 191 42 41 96 59 164 54 47 -4 48 -5 96 -79 47 -71 51 -75 85 -74 20
1 36 4 36 7 0 4 -9 33 -20 65 -36 104 -37 103 124 23 l144 -72 5 -63 c18 -224
252 -381 473 -319 158 45 274 196 274 356 l0 48 85 7 c47 4 122 4 167 0 l83
-6 1 -92 c0 -80 4 -100 29 -152 101 -209 360 -279 553 -148 172 117 213 362
88 531 -39 54 -120 114 -178 132 -30 9 -38 17 -38 35 0 35 -28 107 -52 132
-61 65 -167 -21 -168 -135 0 -33 -4 -39 -41 -56 -56 -25 -133 -106 -161 -167
-20 -44 -26 -50 -48 -45 -63 14 -208 17 -250 6 -72 -18 -71 -19 -91 38 -10 28
-33 73 -51 98 -33 46 -130 124 -154 124 -8 0 -15 19 -19 48 -10 74 -23 106
-54 136 -24 23 -35 27 -60 21 -39 -8 -77 -54 -92 -108 -17 -66 -28 -87 -42
-87 -7 0 -31 -9 -52 -20 -46 -24 -65 -20 -64 12 1 13 -8 43 -19 68 -11 25 -24
70 -27 100 l-6 55 20 -25 c12 -14 26 -30 31 -37 6 -7 15 -35 21 -62 7 -34 18
-55 34 -65 17 -11 23 -12 21 -4 -12 37 -15 98 -6 98 5 0 10 -10 10 -22 1 -23
26 -65 34 -57 4 4 26 207 26 241 0 16 5 18 38 13 20 -4 48 -12 61 -18 19 -9
25 -9 28 0 3 8 25 10 75 6 58 -5 70 -4 66 8 -6 17 -62 38 -106 38 l-33 1 7 73
c4 39 10 83 15 97 7 23 7 23 8 -8 1 -26 5 -33 19 -30 13 2 18 17 23 61 10 91
14 75 12 -46 -1 -96 0 -104 7 -57 5 30 12 100 16 155 4 55 8 96 10 90 1 -5 8
-79 14 -164z m3270 35 c0 -2 -8 -10 -17 -17 -16 -13 -17 -12 -4 4 13 16 21 21
21 13z m-2552 -161 c52 -41 87 -83 59 -72 -9 3 -17 2 -17 -2 0 -5 -7 -12 -16
-15 -16 -6 -80 32 -70 42 4 3 17 -5 30 -17 13 -12 27 -18 30 -13 3 5 -1 15 -9
22 -14 12 -91 117 -109 150 -5 8 6 -2 24 -23 17 -21 52 -53 78 -72z m-942 -22
c-11 -11 -17 4 -9 23 7 18 8 18 11 1 2 -10 1 -21 -2 -24z m21 -5 c-3 -7 -5 -2
-5 12 0 14 2 19 5 13 2 -7 2 -19 0 -25z m1057 -27 c-3 -3 -15 6 -27 18 l-22
24 27 -19 c14 -10 24 -21 22 -23z m42 -18 c-7 -7 -26 7 -26 19 0 6 6 6 15 -2
9 -7 13 -15 11 -17z m5084 -25 c0 -9 -4 -20 -10 -23 -6 -4 -10 9 -10 32 0 28
3 34 10 23 5 -8 10 -23 10 -32z m-2003 -154 c-13 -27 -43 -80 -67 -119 -23
-38 -49 -83 -56 -100 -24 -54 -15 -6 11 56 22 55 126 221 133 214 2 -2 -8 -25
-21 -51z m-822 16 c-30 -32 -55 -39 -55 -16 0 22 29 39 74 45 6 0 -3 -12 -19
-29z m-3631 -110 c6 -1 26 -21 44 -46 l33 -44 -28 -25 c-15 -13 -30 -25 -33
-25 -3 0 -34 43 -69 95 -71 105 -78 143 -9 47 24 -34 46 -61 50 -61 3 -1 -2
24 -13 54 -23 65 -25 96 -2 43 8 -21 20 -38 27 -38z m3882 33 c-8 -15 -15 -25
-16 -21 0 12 23 58 27 54 3 -2 -2 -17 -11 -33z m-4048 -81 c10 1 34 -15 55
-37 29 -31 39 -37 46 -26 7 11 15 7 39 -20 l29 -33 -23 -44 c-13 -24 -26 -59
-30 -78 -3 -19 -11 -37 -16 -40 -5 -3 -48 17 -96 44 -128 73 -172 94 -188 88
-11 -4 -14 6 -14 47 0 68 16 95 25 44 4 -21 11 -39 15 -42 13 -8 21 74 10 96
-6 11 -9 25 -6 32 2 7 5 4 5 -6 1 -10 5 -15 11 -12 5 3 15 -7 22 -22 16 -38
48 -83 58 -83 11 0 5 89 -9 123 -6 16 -11 38 -11 50 0 16 9 7 31 -31 20 -36
35 -52 47 -50z m3734 26 c-7 -7 -12 -8 -12 -2 0 14 12 26 19 19 2 -3 -1 -11
-7 -17z m31 -48 c-20 -22 -48 -47 -62 -56 -19 -12 -16 -6 11 20 21 21 35 43
32 50 -4 9 3 16 18 19 13 2 26 5 30 6 3 0 -10 -17 -29 -39z m698 -45 c-26 -73
-51 -107 -51 -72 0 30 66 164 76 154 2 -2 -9 -39 -25 -82z m173 -14 c-15 -45
-29 -79 -31 -77 -7 7 17 106 34 139 25 50 24 23 -3 -62z m-4258 52 c-10 -46
21 -244 42 -272 31 -43 65 -54 107 -37 53 23 75 80 82 217 7 124 5 123 78 67
116 -89 166 -230 131 -366 -19 -77 -50 -126 -115 -184 -64 -58 -132 -82 -226
-82 -99 0 -163 24 -233 89 -95 88 -136 201 -114 316 13 70 50 149 69 149 8 0
12 4 9 9 -8 12 77 89 117 106 49 22 59 19 53 -12z m1364 -47 c122 -80 187
-223 162 -357 -16 -85 -48 -143 -114 -204 -70 -65 -134 -89 -233 -89 -99 0
-163 24 -233 89 -176 163 -157 409 42 556 21 16 42 29 46 29 4 0 10 -55 12
-122 5 -133 16 -169 64 -207 15 -12 41 -21 59 -21 74 0 105 74 105 248 l0 114
28 -7 c15 -3 43 -17 62 -29z m6893 -111 c20 -77 58 -206 85 -287 27 -81 47
-150 44 -153 -3 -3 -1 -5 4 -5 5 0 10 -8 11 -18 7 -93 377 -762 422 -762 4 0
22 -19 40 -42 18 -24 -16 7 -76 67 -108 110 -168 183 -213 260 l-23 40 26 -24
c37 -33 34 -17 -9 54 -129 213 -232 477 -313 801 -30 118 -49 224 -38 214 2
-3 21 -68 40 -145z m-2634 -17 c0 -138 -1 -141 -14 -98 -11 35 -12 63 -5 130
5 47 10 91 10 98 0 6 2 12 5 12 3 0 5 -64 4 -142z m-1679 112 c0 -5 -4 -10
-10 -10 -5 0 -10 5 -10 10 0 6 5 10 10 10 6 0 10 -4 10 -10z m-350 -102 c-5
-24 -6 -55 -3 -69 3 -15 0 -29 -5 -33 -18 -11 -26 120 -12 168 l13 41 7 -32
c4 -18 4 -52 0 -75z m-297 56 c-20 -15 -43 -18 -43 -6 0 14 10 20 36 20 22 0
23 -2 7 -14z m493 -33 c-9 -17 -20 -47 -25 -68 l-9 -38 -1 40 c-1 24 7 53 20
74 25 41 37 35 15 -8z m2494 -36 c0 -5 -5 -3 -10 5 -5 8 -10 20 -10 25 0 6 5
3 10 -5 5 -8 10 -19 10 -25z m-4493 -7 c-3 -8 -6 -5 -6 6 -1 11 2 17 5 13 3
-3 4 -12 1 -19z m1528 -8 c-7 -12 -65 -43 -65 -35 0 5 61 45 68 45 2 0 0 -5
-3 -10z m3105 -152 c0 -5 -7 -8 -15 -8 -8 0 -15 5 -15 11 0 6 -18 32 -41 57
-69 79 -66 91 4 17 37 -38 66 -73 67 -77z m1807 70 c-3 -8 -6 -5 -6 6 -1 11 2
17 5 13 3 -3 4 -12 1 -19z m-4478 -118 c0 -3 -8 11 -19 30 -11 19 -19 51 -19
70 0 30 3 25 19 -30 11 -36 19 -67 19 -70z m4506 2 c-5 -5 -25 69 -24 88 0 8
7 -7 14 -35 8 -27 12 -51 10 -53z m-4706 10 c-10 -30 -13 -33 -19 -17 -4 10
-1 31 7 45 7 14 14 32 14 40 1 8 4 5 6 -8 2 -12 -1 -39 -8 -60z m-244 37 c-9
-17 -19 -29 -22 -26 -5 5 25 57 33 57 3 0 -3 -14 -11 -31z m129 -23 c-3 -21
-8 -35 -11 -32 -2 2 -1 20 3 40 3 21 8 35 11 32 2 -2 1 -20 -3 -40z m183 2
c-3 -8 -6 -5 -6 6 -1 11 2 17 5 13 3 -3 4 -12 1 -19z m2584 -35 c13 -16 12
-17 -3 -4 -10 7 -18 15 -18 17 0 8 8 3 21 -13z m-2595 -50 c-3 -8 -7 -31 -7
-51 l-1 -37 -9 35 c-4 19 -11 48 -15 64 -6 27 -6 28 15 16 14 -7 20 -17 17
-27z m-99 -15 c-3 -8 -6 -5 -6 6 -1 11 2 17 5 13 3 -3 4 -12 1 -19z m2239 -66
c-19 -37 -56 -70 -56 -51 0 16 50 79 63 79 4 0 1 -12 -7 -28z m-8462 -43 c-11
-23 -13 -34 -5 -39 18 -10 -64 -114 -185 -238 -117 -117 -117 -116 11 43 49
61 111 145 138 188 50 79 70 101 41 46z m8389 -44 c-3 -9 -8 -14 -10 -11 -3 3
-2 9 2 15 9 16 15 13 8 -4z m547 -15 c0 -5 -2 -10 -4 -10 -3 0 -8 5 -11 10 -3
6 -1 10 4 10 6 0 11 -4 11 -10z m-163 -57 c-3 -10 -5 -4 -5 12 0 17 2 24 5 18
2 -7 2 -21 0 -30z m55 -33 c-3 -27 -7 -38 -12 -29 -6 9 -11 5 -15 -14 -7 -27
-25 -38 -25 -14 0 25 23 92 33 99 18 11 23 1 19 -42z m-80 -77 c-3 -14 -17
-37 -31 -49 -32 -28 -42 -22 -14 9 11 12 26 32 32 45 15 29 19 28 13 -5z m-5
-65 c-3 -8 -6 -5 -6 6 -1 11 2 17 5 13 3 -3 4 -12 1 -19z m-94 -50 c-4 -7 -8
-17 -8 -22 0 -5 -6 -11 -12 -13 -19 -7 -16 18 5 33 22 17 25 17 15 2z m-8923
-100 c-17 -34 -35 -67 -40 -72 -10 -10 -50 19 -50 36 0 15 43 68 56 68 6 0 22
9 35 19 13 11 25 18 27 16 2 -2 -11 -32 -28 -67z m8796 -135 c-4 -16 -13 -41
-21 -58 -7 -16 -18 -46 -24 -65 -11 -35 -11 -35 -5 9 4 42 41 141 51 141 3 0
2 -12 -1 -27z m-53 -23 c-9 -22 -20 -40 -25 -40 -11 0 -10 4 4 37 10 23 26 42
35 43 1 0 -6 -18 -14 -40z m-8665 -48 c17 -27 32 -54 32 -61 0 -6 9 -31 20
-54 16 -33 17 -37 3 -17 -10 13 -41 56 -69 95 -35 47 -48 72 -40 77 17 12 19
11 54 -40z m8582 -62 c-6 -11 -12 -20 -14 -20 -2 0 -2 9 1 20 3 11 9 20 15 20
5 0 4 -9 -2 -20z m-66 -57 c-4 -13 -11 -20 -20 -16 -9 3 -14 -2 -14 -16 0 -23
-34 -58 -69 -72 -45 -18 -35 2 34 66 38 36 70 63 71 62 2 -2 1 -12 -2 -24z
m36 -65 c0 -45 -3 -59 -10 -48 -15 24 -10 110 6 110 2 0 4 -28 4 -62z m-5750
-98 c-7 -33 -15 -58 -18 -55 -3 2 1 32 8 65 7 33 15 58 18 55 3 -2 -1 -32 -8
-65z m5550 60 c0 -6 -11 -15 -24 -20 -13 -5 -26 -14 -28 -20 -2 -6 -21 -13
-43 -16 l-40 -5 60 34 c67 39 75 42 75 27z m-5714 -202 c-13 -18 -56 -37 -56
-24 0 4 62 45 68 46 2 0 -4 -10 -12 -22z m-66 -51 c0 -2 -10 -12 -22 -23 l-23
-19 19 23 c18 21 26 27 26 19z m1017 -134 c13 -29 22 -63 20 -75 -4 -20 -4
-19 -6 5 0 15 -8 30 -16 33 -8 3 -20 25 -26 48 -6 22 -17 52 -25 66 l-15 25
22 -25 c12 -14 33 -49 46 -77z m-3198 -34 c59 -99 120 -243 107 -256 -6 -6
-96 152 -96 168 0 8 -20 58 -45 113 -24 54 -42 97 -40 94 2 -2 35 -56 74 -119z
m3251 85 c0 -2 -7 -4 -15 -4 -8 0 -15 4 -15 10 0 5 7 7 15 4 8 -4 15 -8 15
-10z m-1223 -81 c-31 -32 -60 -54 -64 -50 -4 5 15 27 42 50 26 23 53 47 59 53
6 7 13 10 16 8 2 -3 -21 -30 -53 -61z m318 47 c3 -5 1 -10 -4 -10 -6 0 -11 5
-11 10 0 6 2 10 4 10 3 0 8 -4 11 -10z m923 -56 c-3 -14 -5 -12 -10 9 -3 19
-2 25 4 19 6 -6 8 -18 6 -28z m-3228 -19 c0 -5 -5 -3 -10 5 -5 8 -10 20 -10
25 0 6 5 3 10 -5 5 -8 10 -19 10 -25z m2441 -21 c31 -34 32 -35 6 -19 -23 15
-56 55 -44 55 2 0 19 -16 38 -36z m639 -45 c-12 -41 -24 -53 -14 -14 7 32 13
45 19 45 2 0 0 -14 -5 -31z m8720 -10 c0 -9 -155 -99 -172 -99 -25 0 -273
-127 -326 -167 -26 -20 -76 -59 -112 -86 l-65 -50 60 62 c73 76 140 121 356
239 104 57 170 100 178 115 12 23 14 23 46 8 19 -9 34 -18 35 -22z m-9940 17
c0 -3 -4 -8 -10 -11 -5 -3 -10 -1 -10 4 0 6 5 11 10 11 6 0 10 -2 10 -4z
m1339 -158 c1 -21 -3 -38 -8 -38 -13 0 -20 75 -13 138 l7 57 6 -60 c4 -33 7
-77 8 -97z m-819 79 c0 -5 -4 -5 -10 -2 -5 3 -10 14 -10 23 0 15 2 15 10 2 5
-8 10 -19 10 -23z m-617 -22 c-15 -19 -32 -35 -37 -35 -6 0 5 16 24 35 43 45
49 45 13 0z m-1590 -195 c107 -276 159 -524 171 -810 l5 -125 -24 105 c-17 71
-26 145 -29 230 -3 105 -10 146 -40 252 -19 71 -33 134 -30 142 3 8 -3 31 -14
53 -18 34 -92 253 -92 269 0 17 12 -9 53 -116z m-101 5 c6 -5 3 7 -6 29 -21
51 -20 57 4 21 24 -36 46 -104 55 -165 l6 -45 -37 65 c-51 90 -71 131 -79 160
-5 19 0 15 21 -15 15 -22 31 -44 36 -50z m2803 -53 c-6 -7 -35 18 -35 31 0 5
9 2 20 -8 11 -10 18 -20 15 -23z m8067 -269 c-53 -63 -99 -106 -84 -78 14 26
106 125 116 125 4 0 -10 -21 -32 -47z m37 -74 c-29 -40 -135 -151 -116 -120
19 29 126 151 133 151 3 0 -5 -14 -17 -31z m-10735 -99 c7 -53 1 -44 -13 19
-5 24 -6 39 -1 35 4 -5 11 -29 14 -54z m1120 26 c-3 -15 -8 -25 -11 -23 -2 3
-1 17 3 31 3 15 8 25 11 23 2 -3 1 -17 -3 -31z m1413 -193 c-3 -10 -5 -2 -5
17 0 19 2 27 5 18 2 -10 2 -26 0 -35z m33 -42 c0 -3 -7 -26 -14 -51 l-15 -45
0 57 c-1 47 2 56 14 52 8 -4 15 -9 15 -13z m7718 -234 c-79 -118 -149 -222
-156 -233 -23 -35 30 70 71 141 56 96 209 305 224 305 2 0 -61 -96 -139 -213z
m1 -99 c-7 -13 -35 -59 -62 -103 -119 -189 -188 -332 -258 -532 -44 -128 -130
-459 -150 -578 -13 -78 -34 -107 -23 -33 27 195 120 599 139 611 8 4 19 24 26
45 34 104 170 366 275 529 50 77 80 112 53 61z m-191 -203 c-6 -14 -13 -23
-15 -21 -5 5 15 46 22 46 3 0 -1 -11 -7 -25z m-10071 -467 c-3 -8 -6 -5 -6 6
-1 11 2 17 5 13 3 -3 4 -12 1 -19z m563 -213 c84 -9 172 -26 235 -45 55 -16
135 -39 177 -51 78 -20 249 -86 284 -109 18 -11 18 -11 -1 -5 -11 4 -38 11
-60 16 -125 25 -287 70 -300 83 -8 8 -58 22 -112 31 -207 36 -542 120 -398
100 22 -3 101 -12 175 -20z m179 4 c34 -12 60 -23 58 -25 -2 -2 -35 7 -73 20
-38 14 -64 25 -58 25 5 1 38 -8 73 -20z m521 -274 c36 -12 111 -52 168 -89
105 -70 138 -99 55 -50 -26 15 -114 60 -197 101 -149 72 -155 81 -26 38z
m7930 -470 c0 -3 -18 4 -40 15 -22 11 -40 23 -40 25 0 3 18 -4 40 -15 22 -11
40 -23 40 -25z"/>
<path d="M9385 6571 c11 -11 49 -38 85 -61 l65 -41 -52 49 c-28 28 -67 55 -85
61 -33 12 -33 12 -13 -8z"/>
<path d="M8771 6505 c-52 -14 -124 -38 -160 -55 -69 -33 -164 -90 -158 -96 2
-2 28 5 58 16 39 15 49 16 35 5 -31 -24 -12 -28 35 -6 264 117 325 141 371
141 21 0 38 5 38 10 0 18 -123 10 -219 -15z"/>
<path d="M8884 6484 c-18 -14 -18 -15 6 -8 31 8 50 24 29 24 -8 0 -24 -7 -35
-16z"/>
<path d="M8935 6415 c-5 -2 -41 -13 -80 -25 -105 -32 -315 -121 -315 -132 0
-12 18 -8 73 16 22 10 36 12 32 7 -3 -6 -2 -11 4 -11 5 0 12 4 15 9 8 13 186
83 200 78 6 -2 -7 -10 -29 -17 -43 -14 -178 -82 -209 -105 -11 -8 -16 -18 -13
-22 4 -3 -16 -19 -44 -35 -28 -16 -49 -32 -46 -35 3 -2 25 7 50 21 24 14 48
26 53 26 5 -1 -8 -10 -28 -21 -21 -11 -38 -24 -38 -29 0 -15 3 -14 113 39 159
76 443 151 520 136 31 -5 31 -5 9 8 -12 7 -20 16 -17 19 4 3 -26 14 -65 24
-49 13 -65 21 -53 26 11 4 -1 7 -32 8 -38 1 -45 4 -30 10 16 7 11 9 -20 9 -22
-1 -44 -2 -50 -4z m93 -72 c-10 -2 -28 -2 -40 0 -13 2 -5 4 17 4 22 1 32 -1
23 -4z m-143 -38 c-38 -13 -101 -35 -139 -50 -92 -35 -96 -25 -4 13 40 17 87
38 103 46 17 9 48 16 70 15 39 0 37 -1 -30 -24z"/>
<path d="M9240 6329 c25 -22 77 -72 117 -112 40 -39 75 -68 79 -64 4 4 1 13
-7 20 -41 34 -39 46 3 18 25 -17 49 -38 52 -47 4 -9 9 -14 12 -11 12 12 -38
68 -84 94 -26 14 -65 43 -87 63 -51 47 -99 80 -117 80 -7 0 7 -19 32 -41z"/>
<path d="M8604 6248 l-19 -21 28 18 c28 18 33 25 19 25 -5 0 -17 -10 -28 -22z"/>
<path d="M9136 6180 c-50 -9 -216 -95 -258 -132 l-33 -29 45 26 c113 65 219
113 141 63 -19 -12 -29 -24 -23 -26 7 -2 10 -8 6 -13 -3 -5 9 -9 25 -9 18 0
30 -5 29 -12 -3 -13 33 -26 78 -27 17 -1 52 -12 77 -25 26 -13 49 -21 50 -17
11 23 -2 48 -33 63 -44 22 -35 22 46 2 66 -17 95 -12 59 9 -47 28 -114 47
-165 48 -55 1 -55 1 -25 14 17 7 53 14 80 15 85 4 139 -17 220 -84 32 -27 44
-33 33 -17 -25 35 -104 88 -161 107 -48 16 -122 16 -172 -1 -15 -5 -16 -4 -5
3 8 5 38 15 67 22 44 11 59 11 108 -3 47 -13 55 -14 45 -2 -26 31 -139 43
-234 25z"/>
<path d="M10154 6121 c16 -17 26 -36 23 -44 -3 -9 11 -30 35 -53 22 -22 49
-52 61 -69 l21 -30 -24 20 c-25 20 -25 20 -10 0 8 -11 21 -26 28 -33 6 -7 12
-21 12 -30 -1 -12 -5 -10 -15 8 -13 22 -14 23 -15 5 0 -11 4 -36 9 -55 5 -19
12 -55 15 -80 6 -42 5 -44 -9 -25 -14 18 -15 12 -9 -66 6 -78 4 -93 -22 -170
-26 -75 -29 -97 -29 -209 l0 -125 -47 0 -46 -1 -22 53 c-12 29 -27 53 -33 53
-6 0 -21 10 -34 22 -42 39 -29 -1 57 -187 11 -23 21 -57 24 -77 2 -19 11 -49
20 -66 9 -17 16 -38 16 -46 0 -8 5 -18 11 -22 8 -4 9 1 4 17 -5 13 -9 61 -9
107 l-2 82 31 2 c53 3 89 -2 97 -15 10 -16 10 -10 -2 54 -13 69 -14 297 -1
329 l10 25 1 -25 c1 -31 39 -81 47 -62 4 10 8 9 19 -5 12 -16 14 -14 15 22 l1
40 9 -40 c12 -60 -8 -147 -22 -95 -4 16 -7 -1 -8 -45 -1 -39 3 -75 8 -80 5 -6
10 -62 10 -125 0 -63 1 -139 1 -167 0 -58 20 -122 27 -90 3 11 11 16 19 13 17
-6 19 40 4 94 -5 19 -16 90 -24 158 -13 107 -13 128 -1 170 26 85 14 262 -26
357 l-12 30 -7 -35 c-4 -19 -15 -48 -24 -65 l-16 -30 -2 70 c-1 39 -2 84 -3
100 -6 91 -7 186 -3 191 9 8 46 -49 79 -123 41 -91 44 -96 56 -100 16 -6 -34
174 -63 223 -13 23 -44 66 -69 97 -25 31 -45 63 -45 71 0 9 -26 36 -57 61 -66
52 -102 61 -59 16z m233 -1193 c-3 -8 -6 -5 -6 6 -1 11 2 17 5 13 3 -3 4 -12
1 -19z m33 -43 c0 -5 -5 -3 -10 5 -5 8 -10 20 -10 25 0 6 5 3 10 -5 5 -8 10
-19 10 -25z"/>
<path d="M8330 6125 c-14 -8 -20 -14 -14 -15 5 0 19 7 30 15 24 18 16 19 -16
0z"/>
<path d="M9940 6127 c0 -5 5 -17 10 -28 9 -15 7 -19 -5 -19 -12 0 -14 -4 -5
-19 17 -33 11 -34 -22 -6 -19 16 -34 23 -36 16 -4 -13 101 -146 122 -154 14
-6 30 -74 35 -144 1 -7 8 -10 17 -6 13 5 15 18 12 69 -4 71 6 65 23 -12 8 -36
9 -61 2 -80 -6 -16 -7 -38 -3 -49 7 -18 9 -17 16 10 5 17 9 66 9 110 0 78 -2
83 -53 177 -30 54 -62 108 -72 120 -18 21 -19 22 -20 4 0 -20 0 -20 -15 0 -8
10 -15 15 -15 11z"/>
<path d="M8338 6048 c-57 -29 -103 -57 -103 -62 0 -5 -22 -31 -50 -57 -57 -55
-56 -76 1 -27 26 22 32 24 17 7 -13 -14 -23 -29 -23 -35 -1 -5 -19 -27 -40
-49 -22 -22 -40 -48 -40 -59 0 -13 13 -3 47 34 25 28 83 79 127 112 75 55 77
56 31 14 -45 -42 -38 -39 67 31 64 43 117 82 118 86 0 4 -9 3 -20 -3 -34 -18
-22 -3 17 21 32 20 34 23 17 30 -38 15 -65 8 -166 -43z"/>
<path d="M9700 6026 c-47 -13 -94 -35 -88 -41 2 -2 35 5 73 16 38 10 80 19 92
19 12 0 25 5 28 10 8 14 -49 11 -105 -4z"/>
<path d="M10121 5973 c4 -32 8 -68 8 -80 1 -34 21 -28 21 7 0 40 -20 130 -29
130 -4 0 -4 -26 0 -57z"/>
<path d="M9680 5962 c0 -5 -15 -7 -32 -4 -33 4 -33 4 -11 -12 28 -21 105 -12
96 10 -5 15 -53 20 -53 6z"/>
<path d="M9265 5799 c-109 -108 -117 -119 -90 -116 38 5 68 21 124 66 l45 36
-57 -70 c-31 -38 -57 -73 -57 -77 0 -12 28 -9 35 2 5 8 11 8 20 0 11 -9 21 3
50 55 63 112 90 213 60 221 -5 2 -64 -51 -130 -117z"/>
<path d="M9064 5788 c-74 -72 -120 -124 -113 -128 7 -5 -3 -33 -28 -84 l-40
-76 -13 39 c-19 57 -50 47 -50 -16 0 -37 -20 -90 -83 -223 -45 -94 -65 -150
-53 -150 3 0 13 17 23 38 l17 37 4 -28 c2 -15 8 -25 13 -22 12 8 11 -15 -2
-53 -6 -17 -9 -37 -6 -44 2 -7 10 6 17 30 7 23 17 39 21 35 10 -11 13 -99 5
-143 l-7 -35 16 29 c10 17 18 57 20 102 3 57 10 90 34 139 16 36 32 65 35 65
6 0 -21 -93 -39 -135 -7 -16 -13 -57 -13 -90 -1 -33 -10 -87 -22 -120 l-20
-60 21 25 c11 14 24 35 29 48 5 12 18 25 27 29 10 3 56 45 104 92 71 72 90 98
114 158 16 39 31 70 33 68 5 -5 -54 -157 -80 -209 -26 -51 -1 -44 29 9 12 22
31 42 42 47 11 4 32 29 45 57 14 27 30 52 36 56 13 8 -14 -66 -37 -101 -10
-16 -12 -25 -5 -20 7 4 34 51 61 104 27 53 67 120 90 147 23 28 62 91 85 140
43 90 69 160 46 122 -6 -9 -15 -15 -19 -12 -5 2 -14 -8 -21 -24 -12 -30 -40
-50 -40 -29 0 31 -119 -191 -120 -224 -1 -7 -7 -24 -15 -38 -11 -20 -15 -22
-20 -9 -3 8 -1 28 5 43 22 58 8 58 -20 1 -17 -33 -28 -51 -26 -40 20 86 31
113 52 134 27 24 26 43 -1 21 -12 -10 -15 -10 -15 4 0 10 -5 14 -10 11 -19
-12 -91 -125 -105 -165 -8 -22 -26 -56 -41 -77 -23 -34 -25 -35 -20 -11 3 14
8 34 12 45 3 10 -4 1 -16 -19 -11 -21 -22 -38 -25 -38 -2 0 32 73 75 162 44
89 77 164 75 167 -7 6 -33 -29 -68 -93 -32 -59 -26 -23 8 44 12 25 26 56 29
70 l7 25 -21 -25 c-23 -26 -23 -24 -4 38 4 13 2 22 -4 22 -12 0 -46 -54 -57
-89 -6 -20 -4 -23 9 -18 20 8 20 4 0 -35 -9 -17 -13 -39 -11 -50 3 -11 0 -33
-7 -50 l-13 -30 -6 38 c-4 22 -7 61 -7 89 0 69 -21 45 -32 -37 -4 -34 -13 -65
-18 -68 -6 -4 -8 -14 -5 -22 7 -17 -23 -141 -54 -228 -11 -30 -20 -48 -20 -39
-1 9 6 36 14 60 9 24 22 84 30 133 8 49 19 94 25 100 16 16 12 39 -6 32 -13
-5 -15 -1 -9 21 3 15 15 40 27 55 11 16 24 43 29 61 5 18 23 41 41 54 51 35
198 177 198 191 0 24 -25 11 -68 -35 -48 -52 -39 -35 19 37 32 40 55 90 42 90
-3 0 -61 -55 -129 -122z m-253 -509 c-5 -39 -15 -77 -21 -83 -7 -7 -9 -1 -4
22 8 37 -8 43 -24 10 l-11 -23 0 23 c-1 13 14 63 32 112 31 85 32 87 35 49 2
-21 -1 -71 -7 -110z m46 109 c-3 -8 -6 -5 -6 6 -1 11 2 17 5 13 3 -3 4 -12 1
-19z m280 -10 c-3 -8 -6 -5 -6 6 -1 11 2 17 5 13 3 -3 4 -12 1 -19z m-190 -80
c-3 -8 -6 -5 -6 6 -1 11 2 17 5 13 3 -3 4 -12 1 -19z m105 -60 c-17 -39 -51
-87 -86 -123 -65 -67 -64 -62 7 45 90 135 100 150 104 146 2 -2 -9 -33 -25
-68z m-110 -65 c-47 -97 -71 -141 -82 -148 -16 -10 48 129 82 178 30 42 30 32
0 -30z"/>
<path d="M9530 5887 c0 -4 29 -49 64 -100 35 -50 67 -102 70 -114 7 -22 25
-26 38 -9 3 5 -11 35 -32 65 -41 60 -139 171 -140 158z"/>
<path d="M8988 5817 c-85 -57 -130 -97 -110 -97 8 0 10 -5 6 -12 -8 -14 16 5
82 63 23 20 60 47 82 60 42 24 54 40 30 38 -7 0 -48 -24 -90 -52z"/>
<path d="M8140 5750 c0 -5 5 -10 11 -10 5 0 7 5 4 10 -3 6 -8 10 -11 10 -2 0
-4 -4 -4 -10z"/>
<path d="M10162 5720 c0 -14 2 -19 5 -12 2 6 2 18 0 25 -3 6 -5 1 -5 -13z"/>
<path d="M7957 5710 c-3 -11 -3 -20 -1 -20 2 0 8 9 14 20 6 11 7 20 2 20 -6 0
-12 -9 -15 -20z"/>
<path d="M8058 5680 c-67 -59 -198 -258 -198 -300 0 -24 21 -7 41 33 39 76
112 180 171 243 32 34 58 64 58 68 0 15 -20 3 -72 -44z"/>
<path d="M10060 5680 c0 -19 3 -21 12 -12 9 9 9 15 0 24 -9 9 -12 7 -12 -12z"/>
<path d="M8880 5679 c0 -5 5 -7 10 -4 6 3 10 8 10 11 0 2 -4 4 -10 4 -5 0 -10
-5 -10 -11z"/>
<path d="M10150 5674 c0 -14 -2 -16 -9 -6 -6 10 -10 8 -14 -10 -9 -33 -8 -58
1 -58 11 0 36 80 28 88 -3 3 -6 -3 -6 -14z"/>
<path d="M8363 5593 c-52 -57 -62 -73 -44 -73 11 0 85 80 100 109 20 37 -1 23
-56 -36z"/>
<path d="M9486 5606 c-9 -24 -24 -47 -31 -50 -8 -3 -15 -17 -15 -31 0 -14 -12
-48 -26 -76 -14 -28 -23 -56 -21 -62 4 -12 83 83 100 120 17 37 37 37 37 0 1
-44 15 -17 28 50 9 51 0 89 -19 78 -5 -4 -9 -1 -9 4 0 28 -29 6 -44 -33z"/>
<path d="M9580 5636 c0 -2 7 -21 16 -41 19 -46 27 -190 15 -263 -6 -43 -5 -55
6 -59 8 -3 11 -13 8 -27 -5 -19 -5 -19 6 -3 10 17 12 17 25 -8 8 -15 14 -52
14 -81 0 -64 15 -71 25 -11 4 23 11 61 17 85 10 41 11 42 23 19 23 -44 24 -85
5 -228 -17 -136 -18 -160 -4 -147 12 13 45 163 40 182 -3 11 0 61 6 111 12 94
3 309 -12 300 -5 -3 -11 1 -13 7 -3 7 -6 -7 -6 -32 -1 -25 -6 -52 -11 -60 -9
-13 -12 -12 -25 4 -8 11 -15 31 -16 45 0 24 -1 24 -9 6 -5 -11 -9 -34 -9 -52
-1 -40 -11 -64 -23 -57 -5 3 -4 11 3 20 8 9 10 42 6 101 -6 100 -22 163 -41
163 -8 0 -16 7 -20 15 -5 13 -26 22 -26 11z m147 -338 c-2 -13 -4 -5 -4 17 -1
22 1 32 4 23 2 -10 2 -28 0 -40z m-24 -16 c-3 -24 -10 -39 -14 -35 -5 5 -3 25
3 46 14 47 18 43 11 -11z m-46 6 c-3 -8 -6 -5 -6 6 -1 11 2 17 5 13 3 -3 4
-12 1 -19z"/>
<path d="M10072 5580 c1 -14 6 -28 10 -31 5 -3 2 -22 -7 -42 -18 -43 -19 -50
-4 -41 22 13 38 70 29 100 -4 16 -9 25 -9 19 -1 -5 -6 -3 -11 5 -7 11 -9 9 -8
-10z"/>
<path d="M9784 5575 c2 -11 16 -51 30 -90 14 -38 26 -83 26 -100 1 -25 2 -27
10 -13 14 24 -4 97 -41 166 -16 31 -28 48 -25 37z"/>
<path d="M8270 5390 c-52 -55 -97 -106 -99 -113 -2 -6 -11 -21 -19 -32 -9 -11
8 4 39 33 30 28 59 52 64 53 18 1 110 116 111 138 1 11 1 21 0 21 -1 0 -44
-45 -96 -100z"/>
<path d="M9961 5414 c0 -11 3 -14 6 -6 3 7 2 16 -1 19 -3 4 -6 -2 -5 -13z"/>
<path d="M10342 5315 c0 -16 2 -22 5 -12 2 9 2 23 0 30 -3 6 -5 -1 -5 -18z"/>
<path d="M10341 5214 c0 -11 3 -14 6 -6 3 7 2 16 -1 19 -3 4 -6 -2 -5 -13z"/>
<path d="M9245 5179 c-9 -14 -9 -14 70 -38 39 -11 108 -39 154 -61 82 -40 116
-45 105 -17 -7 20 -173 95 -248 112 -74 18 -73 18 -81 4z"/>
<path d="M10342 5130 c0 -19 2 -27 5 -17 2 9 2 25 0 35 -3 9 -5 1 -5 -18z"/>
<path d="M8371 5064 c0 -11 3 -14 6 -6 3 7 2 16 -1 19 -3 4 -6 -2 -5 -13z"/>
<path d="M10107 4960 c-4 -14 -6 -41 -6 -60 l1 -35 9 40 c12 48 8 96 -4 55z"/>
<path d="M10132 4885 c0 -16 2 -22 5 -12 2 9 2 23 0 30 -3 6 -5 -1 -5 -18z"/>
<path d="M10120 4820 c0 -5 5 -10 11 -10 5 0 7 5 4 10 -3 6 -8 10 -11 10 -2 0
-4 -4 -4 -10z"/>
<path d="M10417 4801 c-3 -13 -1 -35 6 -50 l11 -26 3 25 c2 14 0 37 -5 50 l-9
24 -6 -23z"/>
<path d="M9183 4800 c-13 -5 -23 -13 -23 -18 0 -23 35 -33 141 -41 63 -5 121
-12 129 -15 8 -3 22 -1 30 4 22 14 1 42 -41 56 -47 16 -209 25 -236 14z"/>
<path d="M8435 4768 c-67 -22 -175 -71 -175 -80 0 -21 34 -18 117 10 48 17
104 33 123 37 35 8 53 22 44 37 -7 11 -72 9 -109 -4z"/>
<path d="M10142 4618 c-39 -50 -109 -285 -91 -303 8 -7 15 -4 23 10 6 10 33
43 60 72 55 59 55 77 2 43 -46 -28 -46 -19 -1 90 19 46 35 88 35 92 0 12 -16
10 -28 -4z"/>
<path d="M8781 4572 c-7 -14 -5 -27 9 -50 11 -18 24 -32 30 -32 15 0 12 26 -6
41 -9 7 -14 22 -11 36 5 27 -8 30 -22 5z"/>
<path d="M8945 4200 c-27 -16 -71 -32 -97 -35 -32 -5 -48 -12 -48 -21 0 -10
14 -14 53 -14 68 0 160 43 165 78 4 29 -10 27 -73 -8z"/>
<path d="M9050 3735 c-30 -9 -37 -13 -20 -13 14 0 43 5 65 13 52 17 14 17 -45
0z"/>
<path d="M1916 5285 c-9 -26 -7 -32 5 -12 6 10 9 21 6 23 -2 3 -7 -2 -11 -11z"/>
<path d="M1896 5235 c-9 -26 -7 -32 5 -12 6 10 9 21 6 23 -2 3 -7 -2 -11 -11z"/>
<path d="M3615 4978 c14 -48 24 -104 25 -142 l0 -39 -40 45 c-34 39 -80 68
-80 51 0 -3 15 -24 34 -47 37 -46 60 -88 70 -128 3 -16 11 -28 16 -28 21 0 32
58 28 155 -4 99 -16 138 -46 150 -11 4 -13 0 -7 -17z"/>
<path d="M5040 4795 c0 -14 -7 -37 -16 -51 -26 -39 -3 -53 30 -17 29 31 32 49
12 76 -18 24 -26 21 -26 -8z"/>
<path d="M4795 4370 c-12 -19 6 -28 86 -41 87 -14 194 -4 194 19 0 10 -28 14
-120 16 -66 1 -127 5 -136 10 -10 4 -20 3 -24 -4z"/>
<path d="M3896 3388 c-8 -11 -55 -64 -103 -116 -48 -52 -89 -98 -91 -103 -5
-12 15 -11 23 1 4 6 10 8 14 6 8 -6 46 37 122 139 29 39 56 76 62 83 6 8 6 12
-1 12 -6 0 -18 -10 -26 -22z"/>
<path d="M4805 3209 c-4 -6 -5 -12 -2 -15 2 -3 7 2 10 11 7 17 1 20 -8 4z"/>
<path d="M5191 3205 c0 -11 4 -27 9 -35 9 -13 10 -13 9 0 0 8 -4 24 -9 35 l-9
20 0 -20z"/>
<path d="M4235 3150 c9 -16 18 -30 21 -30 2 0 -2 14 -11 30 -9 17 -18 30 -21
30 -2 0 2 -13 11 -30z"/>
<path d="M3690 3130 c0 -6 -11 -8 -27 -4 -23 5 -18 -1 22 -29 67 -47 81 -65
89 -118 13 -86 29 -149 39 -149 5 0 20 -11 33 -25 33 -35 36 -31 13 19 -10 24
-17 51 -14 59 7 17 -69 187 -84 187 -6 0 -21 16 -33 35 -23 34 -38 45 -38 25z"/>
<path d="M5031 3074 c0 -17 -3 -53 -6 -80 l-6 -49 14 36 c9 24 11 51 7 80 -6
36 -8 38 -9 13z"/>
<path d="M3329 2663 c-26 -65 -39 -119 -38 -162 0 -40 4 -31 25 59 13 58 26
111 29 118 2 6 2 12 -1 12 -2 0 -9 -12 -15 -27z"/>
<path d="M3909 2333 c0 -27 0 -28 -10 -5 -5 13 -12 21 -16 19 -11 -7 -10 -402
1 -404 5 0 13 -8 18 -17 5 -9 13 -14 17 -12 15 10 34 125 29 178 -6 59 4 98
26 98 12 0 12 8 2 53 -7 33 -17 52 -26 52 -7 0 -18 15 -22 33 -10 39 -18 41
-19 5z"/>
<path d="M3277 2293 c-10 -10 -8 -293 2 -293 15 0 21 42 21 160 0 108 -7 149
-23 133z"/>
<path d="M5824 2189 c-3 -6 -1 -16 5 -22 8 -8 11 -5 11 11 0 24 -5 28 -16 11z"/>
<path d="M3247 2135 c-4 -22 -6 -56 -6 -75 1 -22 5 -11 10 30 10 72 6 108 -4
45z"/>
<path d="M5842 2130 c0 -14 2 -19 5 -12 2 6 2 18 0 25 -3 6 -5 1 -5 -13z"/>
<path d="M5852 2075 c0 -16 2 -22 5 -12 2 9 2 23 0 30 -3 6 -5 -1 -5 -18z"/>
<path d="M5418 8223 c6 -2 18 -2 25 0 6 3 1 5 -13 5 -14 0 -19 -2 -12 -5z"/>
<path d="M5358 8213 c6 -2 18 -2 25 0 6 3 1 5 -13 5 -14 0 -19 -2 -12 -5z"/>
<path d="M5298 8203 c6 -2 18 -2 25 0 6 3 1 5 -13 5 -14 0 -19 -2 -12 -5z"/>
<path d="M5238 8193 c6 -2 18 -2 25 0 6 3 1 5 -13 5 -14 0 -19 -2 -12 -5z"/>
<path d="M5183 8183 c9 -2 23 -2 30 0 6 3 -1 5 -18 5 -16 0 -22 -2 -12 -5z"/>
<path d="M5123 8173 c9 -2 23 -2 30 0 6 3 -1 5 -18 5 -16 0 -22 -2 -12 -5z"/>
<path d="M5063 8163 c9 -2 23 -2 30 0 6 3 -1 5 -18 5 -16 0 -22 -2 -12 -5z"/>
<path d="M5003 8153 c9 -2 23 -2 30 0 6 3 -1 5 -18 5 -16 0 -22 -2 -12 -5z"/>
<path d="M4933 8143 c9 -2 25 -2 35 0 9 3 1 5 -18 5 -19 0 -27 -2 -17 -5z"/>
<path d="M4873 8133 c9 -2 23 -2 30 0 6 3 -1 5 -18 5 -16 0 -22 -2 -12 -5z"/>
<path d="M4803 8123 c9 -2 25 -2 35 0 9 3 1 5 -18 5 -19 0 -27 -2 -17 -5z"/>
<path d="M4748 8113 c6 -2 18 -2 25 0 6 3 1 5 -13 5 -14 0 -19 -2 -12 -5z"/>
<path d="M4678 8103 c6 -2 18 -2 25 0 6 3 1 5 -13 5 -14 0 -19 -2 -12 -5z"/>
<path d="M13120 7940 c-6 -11 -8 -20 -6 -20 3 0 10 9 16 20 6 11 8 20 6 20 -3
0 -10 -9 -16 -20z"/>
<path d="M12523 5970 c0 -25 2 -35 4 -22 2 12 2 32 0 45 -2 12 -4 2 -4 -23z"/>
<path d="M13405 3076 c-153 -116 -506 -468 -654 -652 -55 -68 -48 -62 49 41
269 286 519 524 676 642 18 14 23 22 14 22 -8 0 -46 -23 -85 -53z"/>
<path d="M2102 1280 c0 -14 2 -19 5 -12 2 6 2 18 0 25 -3 6 -5 1 -5 -13z"/>
<path d="M2092 1230 c0 -14 2 -19 5 -12 2 6 2 18 0 25 -3 6 -5 1 -5 -13z"/>
<path d="M9820 869 c0 -15 -7 -29 -15 -33 -8 -3 -15 -10 -15 -16 0 -6 5 -8 10
-5 14 9 12 -20 -4 -60 -20 -46 -40 -47 -32 -1 8 41 -10 59 -20 21 -6 -24 -8
-25 -24 -10 -16 15 -18 13 -24 -15 -3 -18 -10 -29 -16 -25 -5 3 -10 1 -10 -4
0 -6 7 -11 15 -11 8 0 15 6 15 14 0 26 18 27 46 1 31 -29 40 -25 69 32 10 21
20 39 21 41 0 1 9 0 18 -4 13 -5 16 -14 10 -38 -3 -17 -11 -34 -16 -37 -7 -4
-6 -9 1 -13 6 -4 17 7 25 26 8 19 15 26 15 16 1 -9 5 -19 9 -22 5 -3 6 8 4 25
-3 23 -1 29 15 29 11 0 28 7 39 15 18 13 16 14 -23 15 l-43 0 -1 43 -1 42 -10
-43 c-8 -38 -11 -41 -29 -31 -12 6 -18 17 -15 27 3 9 1 24 -4 32 -8 12 -10 9
-10 -11z"/>
<path d="M9606 838 c-3 -13 -6 -49 -6 -80 0 -45 3 -58 15 -58 8 0 15 7 15 15
0 8 -5 15 -11 15 -8 0 -10 19 -6 65 6 67 4 82 -7 43z"/>
<path d="M9964 621 c4 -35 3 -62 -3 -65 -5 -4 -12 4 -14 16 -4 20 -4 20 -6 -4
-1 -33 18 -47 34 -25 11 15 15 15 51 -2 41 -21 52 -15 35 18 -6 11 -11 29 -11
40 0 11 -5 23 -11 27 -15 9 -30 -16 -23 -41 5 -20 5 -20 -10 -1 -9 11 -16 30
-16 42 0 30 -10 54 -22 54 -7 0 -8 -21 -4 -59z"/>
<path d="M9717 651 c-3 -11 -2 -21 3 -21 4 0 13 -27 21 -60 7 -33 17 -60 22
-60 12 0 2 52 -22 114 -15 39 -19 45 -24 27z"/>
<path d="M9769 628 c-2 -56 2 -72 22 -93 14 -15 21 -17 31 -7 8 8 15 9 25 0
21 -17 28 -1 10 20 -10 10 -17 26 -17 35 0 9 -4 17 -10 17 -5 0 -10 -11 -10
-24 0 -14 -4 -27 -9 -30 -13 -8 -21 19 -21 70 0 50 -19 61 -21 12z"/>
<path d="M9866 644 c-11 -28 -6 -58 14 -91 20 -34 50 -44 50 -18 0 8 -6 15
-14 15 -18 0 -27 25 -20 58 5 22 3 24 -6 12 -10 -12 -11 -11 -7 7 6 27 -8 40
-17 17z"/>
<path d="M3890 616 c0 -2 7 -7 16 -10 8 -3 12 -2 9 4 -6 10 -25 14 -25 6z"/>
</g>
</svg>
